<svg width="62" height="64" viewBox="0 0 62 64" fill="none" xmlns="http://www.w3.org/2000/svg">
<path fill-rule="evenodd" clip-rule="evenodd" d="M2.78399 51.578L18.994 32.454C19.278 32.118 19.503 31.795 19.64 31.482C19.751 31.231 19.813 30.954 19.813 30.639V5.215H18.327C17.027 5.215 15.972 4.16 15.972 2.86C15.972 1.56 17.027 0.504998 18.327 0.504998H19.813V0.503998H42.187V0.504998H43.844C45.144 0.504998 46.199 1.56 46.199 2.86C46.199 4.16 45.144 5.215 43.844 5.215H42.187V30.639C42.187 30.954 42.249 31.231 42.36 31.482C42.497 31.796 42.722 32.119 43.006 32.454L59.216 51.578C60.12 52.644 60.751 53.874 61.012 55.183C61.266 56.463 61.163 57.801 60.615 59.124C60.059 60.465 59.155 61.555 58.024 62.311C56.882 63.074 55.53 63.496 54.09 63.496H7.91099C6.46999 63.496 5.11799 63.074 3.97699 62.311C2.84499 61.555 1.94099 60.465 1.38599 59.124C0.837991 57.8 0.733992 56.463 0.987992 55.183C1.24899 53.874 1.87999 52.645 2.78399 51.578ZM38.607 38.762C36.344 39 35.596 39.112 32.754 41.033C27.595 44.521 26.077 44.077 21.168 42.746C20.262 42.5 19.353 42.785 18.748 43.502L8.79799 55.307C8.57899 55.565 8.28199 55.978 8.42999 56.337C8.55899 56.647 8.77499 56.792 9.11099 56.792H52.889C53.225 56.792 53.442 56.647 53.57 56.337C53.719 55.977 53.434 55.578 53.212 55.319L40.697 39.636C40.18 38.989 39.431 38.675 38.607 38.762ZM30.784 49.836C32.256 49.836 33.448 51.028 33.448 52.5C33.448 53.971 32.256 55.164 30.784 55.164C29.313 55.164 28.12 53.971 28.12 52.5C28.12 51.028 29.313 49.836 30.784 49.836ZM34.951 42.714C36.586 42.714 37.911 44.04 37.911 45.674C37.911 47.309 36.586 48.634 34.951 48.634C33.316 48.634 31.991 47.309 31.991 45.674C31.991 44.04 33.316 42.714 34.951 42.714ZM25.411 45.738C26.253 45.738 26.935 46.42 26.935 47.261C26.935 48.103 26.253 48.785 25.411 48.785C24.57 48.785 23.888 48.103 23.888 47.261C23.888 46.42 24.57 45.738 25.411 45.738ZM37.477 5.215H24.523V30.639C24.523 31.621 24.315 32.517 23.945 33.359C23.602 34.139 23.136 34.835 22.582 35.489L6.37199 54.613C5.97599 55.08 5.70599 55.584 5.60599 56.085C5.52399 56.498 5.55499 56.924 5.72699 57.339C5.91599 57.795 6.21699 58.162 6.58899 58.41C6.95099 58.652 7.40499 58.786 7.91099 58.786H54.09C54.596 58.786 55.049 58.652 55.411 58.41C55.784 58.162 56.084 57.795 56.273 57.339C56.445 56.924 56.476 56.498 56.394 56.085C56.294 55.584 56.025 55.08 55.629 54.613L39.419 35.489C38.864 34.835 38.397 34.139 38.055 33.359C37.685 32.517 37.477 31.621 37.477 30.639V5.215Z" fill="white"/>
</svg>
