<svg width="80" height="100" viewBox="0 0 80 100" fill="none" xmlns="http://www.w3.org/2000/svg">
<path fill-rule="evenodd" clip-rule="evenodd" d="M11.784 59.578L27.994 40.454C28.278 40.118 28.503 39.795 28.64 39.482C28.751 39.231 28.813 38.954 28.813 38.639V13.215H27.327C26.027 13.215 24.972 12.16 24.972 10.86C24.972 9.56 26.027 8.505 27.327 8.505H28.813V8.504H51.187V8.505H52.844C54.144 8.505 55.199 9.56 55.199 10.86C55.199 12.16 54.144 13.215 52.844 13.215H51.187V38.639C51.187 38.954 51.249 39.231 51.36 39.482C51.497 39.796 51.722 40.119 52.006 40.454L68.216 59.578C69.12 60.644 69.751 61.874 70.012 63.183C70.266 64.463 70.163 65.801 69.615 67.124C69.059 68.465 68.155 69.555 67.024 70.311C65.882 71.074 64.53 71.496 63.09 71.496H16.911C15.47 71.496 14.118 71.074 12.977 70.311C11.845 69.555 10.941 68.465 10.386 67.124C9.83799 65.8 9.73399 64.463 9.98799 63.183C10.249 61.874 10.88 60.645 11.784 59.578ZM47.607 46.762C45.344 47 44.596 47.112 41.754 49.033C36.595 52.521 35.077 52.077 30.168 50.746C29.262 50.5 28.353 50.785 27.748 51.502L17.798 63.307C17.579 63.565 17.282 63.978 17.43 64.337C17.559 64.647 17.775 64.792 18.111 64.792H61.889C62.225 64.792 62.442 64.647 62.57 64.337C62.719 63.977 62.434 63.578 62.212 63.319L49.697 47.636C49.18 46.989 48.431 46.675 47.607 46.762ZM39.784 57.836C41.256 57.836 42.448 59.028 42.448 60.5C42.448 61.971 41.256 63.164 39.784 63.164C38.313 63.164 37.12 61.971 37.12 60.5C37.12 59.028 38.313 57.836 39.784 57.836ZM43.951 50.714C45.586 50.714 46.911 52.04 46.911 53.674C46.911 55.309 45.586 56.634 43.951 56.634C42.316 56.634 40.991 55.309 40.991 53.674C40.991 52.04 42.316 50.714 43.951 50.714ZM34.411 53.738C35.253 53.738 35.935 54.42 35.935 55.261C35.935 56.103 35.253 56.785 34.411 56.785C33.57 56.785 32.888 56.103 32.888 55.261C32.888 54.42 33.57 53.738 34.411 53.738ZM46.477 13.215H33.523V38.639C33.523 39.621 33.315 40.517 32.945 41.359C32.602 42.139 32.136 42.835 31.582 43.489L15.372 62.613C14.976 63.08 14.706 63.584 14.606 64.085C14.524 64.498 14.555 64.924 14.727 65.339C14.916 65.795 15.217 66.162 15.589 66.41C15.951 66.652 16.405 66.786 16.911 66.786H63.09C63.596 66.786 64.049 66.652 64.411 66.41C64.784 66.162 65.084 65.795 65.273 65.339C65.445 64.924 65.476 64.498 65.394 64.085C65.294 63.584 65.025 63.08 64.629 62.613L48.419 43.489C47.864 42.835 47.397 42.139 47.055 41.359C46.685 40.517 46.477 39.621 46.477 38.639V13.215Z" fill="white"/>
</svg>
