<svg width="72" height="72" viewBox="0 0 72 72" fill="none" xmlns="http://www.w3.org/2000/svg">
<path d="M32 22.1H21.5C20.9 19.2 18.3001 17 15.2001 17C11.7001 17 8.80005 19.9 8.80005 23.4C8.80005 26.9 11.7001 29.8 15.2001 29.8C18.2001 29.8 20.7001 27.7 21.4001 24.9H30.1C30.4 24.9 30.6 25.1 30.6 25.4V64.3C30.6 65 31.1001 65.7 31.9001 65.7C32.7001 65.8 33.4001 65.1 33.4001 64.3V23.5C33.4001 22.8 32.8 22.1 32 22.1ZM15.2001 27C13.2001 27 11.6 25.4 11.6 23.4C11.6 21.4 13.2001 19.8 15.2001 19.8C17.2001 19.8 18.8 21.4 18.8 23.4C18.8 25.4 17.2001 27 15.2001 27Z" fill="white"/>
<path d="M46.4 6.60001C46.4 3.10001 43.5 0.200012 40 0.200012C36.5 0.200012 33.6 3.10001 33.6 6.60001C33.6 9.60001 35.7 12.2 38.6 12.8V67.3C38.6 68.1 39.3 68.8 40.1 68.7C40.8 68.6 41.4 68 41.4 67.3V12.8C44.3 12.2 46.4 9.60001 46.4 6.60001ZM40 10.2C38 10.2 36.4 8.60001 36.4 6.60001C36.4 4.60001 38 3.00001 40 3.00001C42 3.00001 43.6 4.60001 43.6 6.60001C43.6 8.60001 42 10.2 40 10.2Z" fill="white"/>
<path d="M46.6 29.5V70.3C46.6 71.1 47.3 71.8 48.1 71.7C48.8 71.6 49.4 71 49.4 70.3V31.5C49.4 31.2 49.6 31 49.9 31H58.6C59.3 33.8 61.8 35.9 64.8 35.9C68.3 35.9 71.2 33 71.2 29.5C71.2 26 68.3 23 64.8 23C61.7 23 59.1 25.2 58.5 28.1H48C47.3 28.1 46.6 28.8 46.6 29.5ZM61.2 29.4C61.2 27.4 62.8 25.8 64.8 25.8C66.8 25.8 68.4 27.4 68.4 29.4C68.4 31.4 66.8 33 64.8 33C62.8 33 61.2 31.4 61.2 29.4Z" fill="white"/>
<path d="M24 37.1H13.5C12.9 34.2 10.3 32 7.20005 32C3.70005 32 0.800049 34.9 0.800049 38.4C0.800049 41.9 3.70005 44.8 7.20005 44.8C10.2 44.8 12.7 42.7 13.4 39.9H22.1C22.4 39.9 22.6 40.1 22.6 40.4V70.3C22.6 71 23.1001 71.7 23.9001 71.7C24.7001 71.8 25.4001 71.1 25.4001 70.3V38.5C25.4001 37.7 24.7001 37.1 24 37.1ZM7.20005 42C5.20005 42 3.60005 40.4 3.60005 38.4C3.60005 36.4 5.20005 34.8 7.20005 34.8C9.20005 34.8 10.8 36.4 10.8 38.4C10.8 40.4 9.20005 42 7.20005 42Z" fill="white"/>
</svg>
