<svg width="199" height="201" viewBox="0 0 199 201" fill="none" xmlns="http://www.w3.org/2000/svg">
<path fill-rule="evenodd" clip-rule="evenodd" d="M100 0L124 14L149 28V57V85L124 99L100 113L75 99L51 85V57V28L75 14L100 0ZM100 12L80 23L61 34V79L80 90L100 102L119 90L139 79V34L119 23L100 12Z" fill="white"/>
<path fill-rule="evenodd" clip-rule="evenodd" d="M150 88L175 102L199 116V145V173L175 187L150 201L126 187L101 173V145V116L126 102L150 88ZM150 100L111 122V167L150 190L189 167V122L150 100Z" fill="white"/>
<path fill-rule="evenodd" clip-rule="evenodd" d="M49 88L74 102L98 116V144V173L74 187L49 201L25 187L0 173V144V116L25 102L49 88ZM49 99L10 122V167L49 189L88 167V122L49 99Z" fill="white"/>
</svg>
