<svg width="57" height="58" viewBox="0 0 57 58" fill="none" xmlns="http://www.w3.org/2000/svg">
<path d="M2.28 23.08C2.12629 22.2579 2.03271 21.4257 2 20.59C2 20.3248 1.89464 20.0704 1.70711 19.8829C1.51957 19.6954 1.26522 19.59 1 19.59C0.734784 19.59 0.48043 19.6954 0.292893 19.8829C0.105357 20.0704 0 20.3248 0 20.59C0.0315851 21.5228 0.131857 22.452 0.3 23.37C0.342596 23.603 0.466486 23.8132 0.649611 23.9634C0.832737 24.1136 1.06321 24.1939 1.3 24.19H1.48C1.72943 24.1413 1.95096 23.9994 2.09955 23.7932C2.24815 23.5871 2.31267 23.332 2.28 23.08Z" fill="white"/>
<path d="M8 11.39C6.0576 13.8395 5.00037 16.8738 5 20C5.00458 22.7334 5.80924 25.4057 7.31472 27.6872C8.82019 29.9687 10.9606 31.7596 13.4719 32.8389C15.9833 33.9182 18.7556 34.2388 21.447 33.761C24.1383 33.2833 26.631 32.0281 28.6173 30.1503C30.6037 28.2726 31.997 25.8544 32.6252 23.1942C33.2534 20.5339 33.0892 17.7479 32.1526 15.1799C31.2161 12.6119 29.5483 10.3742 27.355 8.74296C25.1617 7.11168 22.5389 6.15814 19.81 5.99999C19.5448 5.9854 19.2846 6.07677 19.0868 6.25399C18.8889 6.43121 18.7696 6.67977 18.755 6.94499C18.7404 7.2102 18.8318 7.47035 19.009 7.6682C19.1862 7.86605 19.4348 7.9854 19.7 7.99999C22.0387 8.13665 24.2863 8.95487 26.1654 10.3537C28.0446 11.7526 29.4733 13.6709 30.2751 15.8721C31.077 18.0733 31.217 20.4611 30.678 22.7409C30.1389 25.0207 28.9443 27.0929 27.2415 28.7018C25.5387 30.3107 23.4022 31.3861 21.0955 31.7952C18.7888 32.2043 16.4128 31.9292 14.2606 31.004C12.1083 30.0787 10.274 28.5438 8.98381 26.5884C7.69361 24.633 7.00399 22.3427 7 20C6.98851 17.3253 7.87994 14.725 9.53 12.62C9.63813 12.4147 9.6715 12.1782 9.62439 11.951C9.57728 11.7238 9.45262 11.52 9.27177 11.3746C9.09093 11.2292 8.86515 11.1513 8.63313 11.1541C8.4011 11.1569 8.17728 11.2403 8 11.39Z" fill="white"/>
<path d="M11.6 25.73C11.7631 25.9395 12.0028 26.0757 12.2663 26.1085C12.5298 26.1413 12.7955 26.0681 13.005 25.905C13.2145 25.7419 13.3507 25.5022 13.3835 25.2388C13.4163 24.9753 13.3431 24.7095 13.18 24.5C12.1843 23.2113 11.6441 21.6286 11.6441 20C11.6441 18.3714 12.1843 16.7888 13.18 15.5C13.2608 15.3963 13.3203 15.2776 13.3552 15.1509C13.3902 15.0241 13.3998 14.8917 13.3835 14.7613C13.3673 14.6308 13.3255 14.5048 13.2605 14.3905C13.1956 14.2762 13.1088 14.1758 13.005 14.095C12.9013 14.0142 12.7826 13.9547 12.6559 13.9198C12.5291 13.8849 12.3967 13.8753 12.2663 13.8915C12.1358 13.9078 12.0098 13.9496 11.8955 14.0145C11.7812 14.0794 11.6808 14.1663 11.6 14.27C10.3237 15.9112 9.63074 17.9309 9.63074 20.01C9.63074 22.0891 10.3237 24.1088 11.6 25.75V25.73Z" fill="white"/>
<path d="M11.75 10.21C11.9503 10.1968 12.1419 10.1236 12.3 10C13.5546 9.1515 14.9598 8.55071 16.44 8.23001C16.7053 8.17431 16.9375 8.01554 17.0856 7.78862C17.2338 7.5617 17.2857 7.28522 17.23 7.02001C17.1743 6.75479 17.0156 6.52256 16.7886 6.37441C16.5617 6.22625 16.2853 6.17431 16.02 6.23001C14.2903 6.60237 12.6476 7.30155 11.18 8.29001C11.002 8.40965 10.8671 8.58336 10.7954 8.78551C10.7236 8.98765 10.7188 9.20751 10.7816 9.41263C10.8443 9.61774 10.9714 9.79723 11.144 9.92461C11.3166 10.052 11.5255 10.1205 11.74 10.12L11.75 10.21Z" fill="white"/>
<path d="M44.76 39.34C44.5687 39.1762 44.3226 39.0906 44.0709 39.1003C43.8193 39.11 43.5805 39.2143 43.4024 39.3924C43.2243 39.5705 43.12 39.8093 43.1103 40.0609C43.1006 40.3126 43.1862 40.5587 43.35 40.75L53.35 50.75C53.5991 50.9826 53.7989 51.2631 53.9374 51.5745C54.0758 51.886 54.1502 52.2222 54.1561 52.563C54.1619 52.9038 54.0991 53.2423 53.9713 53.5583C53.8436 53.8744 53.6535 54.1615 53.4125 54.4025C53.1714 54.6435 52.8844 54.8336 52.5683 54.9613C52.2523 55.0891 51.9138 55.1519 51.573 55.1461C51.2322 55.1402 50.896 55.0659 50.5845 54.9274C50.273 54.7889 49.9926 54.5891 49.76 54.34L30.5 35.09C31.8508 34.0581 33.0581 32.8508 34.09 31.5L37.43 34.84C37.6213 35.0038 37.8674 35.0894 38.119 35.0797C38.3707 35.07 38.6095 34.9656 38.7875 34.7876C38.9656 34.6095 39.07 34.3707 39.0797 34.119C39.0894 33.8674 39.0038 33.6213 38.84 33.43L35.23 29.82C36.6876 27.4327 37.6001 24.753 37.9023 21.9722C38.2046 19.1915 37.8891 16.3783 36.9785 13.7335C36.0679 11.0888 34.5846 8.67773 32.6345 6.67251C30.6843 4.66728 28.3155 3.11736 25.6972 2.13342C23.0788 1.14948 20.2755 0.755789 17.4875 0.980459C14.6994 1.20513 11.9953 2.04262 9.56828 3.43313C7.14127 4.82364 5.05121 6.73286 3.44734 9.02448C1.84347 11.3161 0.765357 13.9336 0.289982 16.69C0.243569 16.9552 0.304414 17.228 0.459131 17.4484C0.613849 17.6687 0.849765 17.8186 1.11498 17.865C1.3802 17.9114 1.65299 17.8506 1.87334 17.6958C2.0937 17.5411 2.24357 17.3052 2.28998 17.04C2.99158 13.0013 5.12884 9.35215 8.30811 6.76461C11.4874 4.17707 15.4945 2.82542 19.5915 2.95863C23.6885 3.09183 27.5994 4.70091 30.6039 7.4895C33.6084 10.2781 35.5041 14.0584 35.9419 18.1341C36.3797 22.2098 35.33 26.3065 32.9863 29.6695C30.6426 33.0326 27.1626 35.4355 23.1874 36.4358C19.2121 37.436 15.0093 36.9662 11.353 35.1129C7.69677 33.2596 4.83328 30.1475 3.28998 26.35C3.19053 26.1033 2.99716 25.9063 2.75243 25.8022C2.50769 25.6981 2.23163 25.6955 1.98498 25.795C1.73833 25.8944 1.54129 26.0878 1.43721 26.3325C1.33312 26.5773 1.33053 26.8533 1.42998 27.1C2.46159 29.65 4.03461 31.9456 6.04031 33.8282C8.04601 35.7107 10.4366 37.1353 13.0468 38.0035C15.657 38.8716 18.4246 39.1627 21.1582 38.8565C23.8919 38.5503 26.5265 37.6541 28.88 36.23L48.3 55.71C48.7263 56.1377 49.2328 56.4772 49.7905 56.7088C50.3482 56.9405 50.9461 57.0598 51.55 57.06C52.1424 57.0608 52.7292 56.9446 53.2766 56.7181C53.824 56.4916 54.3213 56.1592 54.74 55.74C55.1636 55.3165 55.4996 54.8138 55.7289 54.2604C55.9582 53.7071 56.0762 53.114 56.0762 52.515C56.0762 51.916 55.9582 51.3229 55.7289 50.7696C55.4996 50.2162 55.1636 49.7135 54.74 49.29L44.76 39.34Z" fill="white"/>
<path d="M39.75 35.75C39.5638 35.9374 39.4592 36.1908 39.4592 36.455C39.4592 36.7192 39.5638 36.9726 39.75 37.16L41.2 38.61C41.3913 38.7738 41.6374 38.8594 41.8891 38.8497C42.1408 38.84 42.3795 38.7357 42.5576 38.5576C42.7357 38.3795 42.84 38.1407 42.8497 37.889C42.8595 37.6374 42.7738 37.3913 42.61 37.2L41.16 35.75C40.9727 35.5637 40.7192 35.4592 40.455 35.4592C40.1908 35.4592 39.9374 35.5637 39.75 35.75Z" fill="white"/>
</svg>
