<svg width="64" height="80" viewBox="0 0 64 80" fill="none" xmlns="http://www.w3.org/2000/svg">
<path d="M6.28 26.08C6.12629 25.2579 6.03271 24.4257 6 23.59C6 23.3248 5.89464 23.0704 5.70711 22.8829C5.51957 22.6954 5.26522 22.59 5 22.59C4.73478 22.59 4.48043 22.6954 4.29289 22.8829C4.10536 23.0704 4 23.3248 4 23.59C4.03159 24.5228 4.13186 25.452 4.3 26.37C4.3426 26.603 4.46649 26.8132 4.64961 26.9634C4.83274 27.1136 5.06321 27.1939 5.3 27.19H5.48C5.72943 27.1413 5.95096 26.9994 6.09955 26.7932C6.24815 26.5871 6.31267 26.332 6.28 26.08Z" fill="white"/>
<path d="M12 14.39C10.0576 16.8395 9.00037 19.8738 9 23C9.00458 25.7334 9.80924 28.4057 11.3147 30.6872C12.8202 32.9687 14.9606 34.7596 17.4719 35.8389C19.9833 36.9182 22.7556 37.2388 25.447 36.761C28.1383 36.2833 30.631 35.0281 32.6173 33.1503C34.6037 31.2726 35.997 28.8544 36.6252 26.1942C37.2534 23.5339 37.0892 20.7479 36.1526 18.1799C35.2161 15.6119 33.5483 13.3742 31.355 11.743C29.1617 10.1117 26.5389 9.15814 23.81 8.99999C23.5448 8.9854 23.2846 9.07677 23.0868 9.25399C22.8889 9.43121 22.7696 9.67977 22.755 9.94499C22.7404 10.2102 22.8318 10.4704 23.009 10.6682C23.1862 10.8661 23.4348 10.9854 23.7 11C26.0387 11.1366 28.2863 11.9549 30.1654 13.3537C32.0446 14.7526 33.4733 16.6709 34.2751 18.8721C35.077 21.0733 35.217 23.4611 34.678 25.7409C34.1389 28.0207 32.9443 30.0929 31.2415 31.7018C29.5387 33.3107 27.4022 34.3861 25.0955 34.7952C22.7888 35.2043 20.4128 34.9292 18.2606 34.004C16.1083 33.0787 14.274 31.5437 12.9838 29.5884C11.6936 27.633 11.004 25.3427 11 23C10.9885 20.3253 11.8799 17.725 13.53 15.62C13.6381 15.4147 13.6715 15.1782 13.6244 14.951C13.5773 14.7238 13.4526 14.52 13.2718 14.3746C13.0909 14.2292 12.8651 14.1513 12.6331 14.1541C12.4011 14.1569 12.1773 14.2403 12 14.39Z" fill="white"/>
<path d="M15.6 28.73C15.7631 28.9395 16.0028 29.0757 16.2663 29.1085C16.5298 29.1413 16.7955 29.0681 17.005 28.905C17.2145 28.7419 17.3507 28.5022 17.3835 28.2388C17.4163 27.9753 17.3431 27.7095 17.18 27.5C16.1843 26.2113 15.6441 24.6286 15.6441 23C15.6441 21.3714 16.1843 19.7888 17.18 18.5C17.2608 18.3963 17.3203 18.2776 17.3552 18.1509C17.3902 18.0241 17.3998 17.8917 17.3835 17.7613C17.3673 17.6308 17.3255 17.5048 17.2605 17.3905C17.1956 17.2762 17.1088 17.1758 17.005 17.095C16.9013 17.0142 16.7826 16.9547 16.6559 16.9198C16.5291 16.8849 16.3967 16.8753 16.2663 16.8915C16.1358 16.9078 16.0098 16.9496 15.8955 17.0145C15.7812 17.0794 15.6808 17.1663 15.6 17.27C14.3237 18.9112 13.6307 20.9309 13.6307 23.01C13.6307 25.0891 14.3237 27.1088 15.6 28.75V28.73Z" fill="white"/>
<path d="M15.75 13.21C15.9503 13.1968 16.1419 13.1236 16.3 13C17.5546 12.1515 18.9598 11.5507 20.44 11.23C20.7053 11.1743 20.9375 11.0155 21.0856 10.7886C21.2338 10.5617 21.2857 10.2852 21.23 10.02C21.1743 9.75479 21.0156 9.52256 20.7886 9.37441C20.5617 9.22625 20.2853 9.17431 20.02 9.23001C18.2903 9.60237 16.6476 10.3016 15.18 11.29C15.002 11.4096 14.8671 11.5834 14.7954 11.7855C14.7236 11.9877 14.7188 12.2075 14.7816 12.4126C14.8443 12.6177 14.9714 12.7972 15.144 12.9246C15.3166 13.052 15.5255 13.1205 15.74 13.12L15.75 13.21Z" fill="white"/>
<path d="M48.76 42.34C48.5687 42.1762 48.3226 42.0906 48.0709 42.1003C47.8193 42.11 47.5805 42.2143 47.4024 42.3924C47.2243 42.5705 47.12 42.8093 47.1103 43.0609C47.1006 43.3126 47.1862 43.5587 47.35 43.75L57.35 53.75C57.5991 53.9826 57.7989 54.2631 57.9374 54.5745C58.0758 54.886 58.1502 55.2222 58.1561 55.563C58.1619 55.9038 58.0991 56.2423 57.9713 56.5583C57.8436 56.8744 57.6535 57.1615 57.4125 57.4025C57.1714 57.6435 56.8844 57.8336 56.5683 57.9613C56.2523 58.0891 55.9138 58.1519 55.573 58.1461C55.2321 58.1402 54.896 58.0659 54.5845 57.9274C54.273 57.7889 53.9926 57.5891 53.76 57.34L34.5 38.09C35.8508 37.0581 37.0581 35.8508 38.09 34.5L41.43 37.84C41.6213 38.0038 41.8674 38.0894 42.119 38.0797C42.3707 38.07 42.6094 37.9657 42.7875 37.7876C42.9656 37.6095 43.07 37.3707 43.0797 37.119C43.0894 36.8674 43.0038 36.6213 42.84 36.43L39.23 32.82C40.6876 30.4327 41.6001 27.753 41.9023 24.9722C42.2046 22.1915 41.8891 19.3783 40.9785 16.7335C40.0679 14.0888 38.5846 11.6777 36.6345 9.67251C34.6843 7.66728 32.3155 6.11736 29.6972 5.13342C27.0788 4.14948 24.2755 3.75579 21.4875 3.98046C18.6994 4.20513 15.9953 5.04262 13.5683 6.43313C11.1413 7.82364 9.05121 9.73286 7.44734 12.0245C5.84347 14.3161 4.76536 16.9336 4.28998 19.69C4.24357 19.9552 4.30441 20.228 4.45913 20.4484C4.61385 20.6687 4.84976 20.8186 5.11498 20.865C5.3802 20.9114 5.65299 20.8506 5.87334 20.6958C6.0937 20.5411 6.24357 20.3052 6.28998 20.04C6.99158 16.0013 9.12884 12.3521 12.3081 9.76461C15.4874 7.17707 19.4945 5.82542 23.5915 5.95863C27.6885 6.09183 31.5994 7.70091 34.6039 10.4895C37.6084 13.2781 39.5041 17.0584 39.9419 21.1341C40.3797 25.2098 39.33 29.3065 36.9863 32.6695C34.6426 36.0326 31.1626 38.4355 27.1874 39.4358C23.2121 40.436 19.0093 39.9662 15.353 38.1129C11.6968 36.2596 8.83328 33.1475 7.28998 29.35C7.19053 29.1033 6.99716 28.9063 6.75243 28.8022C6.50769 28.6981 6.23163 28.6955 5.98498 28.795C5.73833 28.8944 5.54129 29.0878 5.43721 29.3325C5.33312 29.5773 5.33053 29.8533 5.42998 30.1C6.46159 32.65 8.03461 34.9456 10.0403 36.8282C12.046 38.7107 14.4366 40.1353 17.0468 41.0035C19.657 41.8716 22.4246 42.1627 25.1582 41.8565C27.8919 41.5503 30.5265 40.6541 32.88 39.23L52.3 58.71C52.7263 59.1377 53.2328 59.4772 53.7905 59.7088C54.3482 59.9405 54.9461 60.0598 55.55 60.06C56.1424 60.0608 56.7292 59.9446 57.2766 59.7181C57.824 59.4916 58.3213 59.1592 58.74 58.74C59.1636 58.3165 59.4996 57.8138 59.7289 57.2604C59.9582 56.7071 60.0762 56.114 60.0762 55.515C60.0762 54.916 59.9582 54.3229 59.7289 53.7696C59.4996 53.2162 59.1636 52.7135 58.74 52.29L48.76 42.34Z" fill="white"/>
<path d="M43.75 38.75C43.5638 38.9374 43.4592 39.1908 43.4592 39.455C43.4592 39.7192 43.5638 39.9726 43.75 40.16L45.2 41.61C45.3913 41.7738 45.6374 41.8594 45.8891 41.8497C46.1408 41.84 46.3795 41.7357 46.5576 41.5576C46.7357 41.3795 46.84 41.1407 46.8497 40.889C46.8595 40.6374 46.7738 40.3913 46.61 40.2L45.16 38.75C44.9727 38.5637 44.7192 38.4592 44.455 38.4592C44.1908 38.4592 43.9374 38.5637 43.75 38.75Z" fill="white"/>
</svg>
