<svg width="52" height="56" viewBox="0 0 52 56" fill="none" xmlns="http://www.w3.org/2000/svg">
<path d="M21.9882 32.3624L20.574 33.7766L26.2937 39.4963L27.7079 38.0821L21.9882 32.3624Z" fill="white"/>
<path d="M49.835 20.445C49.928 20.1 49.829 19.732 49.576 19.479L39.945 9.848L40.693 7.045C42.594 6.995 44.127 5.44 44.127 3.527C44.127 1.583 42.545 0 40.601 0C38.656 0 37.074 1.583 37.074 3.527C37.074 4.797 37.754 5.902 38.764 6.524L38.019 9.316L24.833 12.849C24.488 12.941 24.219 13.211 24.126 13.556L20.597 26.727L7.62803 30.202L6.97103 29.545C7.24003 29.047 7.40703 28.487 7.40703 27.883C7.40703 25.938 5.82503 24.356 3.88003 24.356C1.93503 24.356 0.353027 25.939 0.353027 27.883C0.353027 29.827 1.93503 31.41 3.88003 31.41C4.49203 31.41 5.06003 31.239 5.56203 30.964L6.47603 31.878L3.04003 44.691C2.94703 45.036 3.04603 45.404 3.29903 45.657L13.349 55.707C13.538 55.897 13.794 56 14.056 56C14.142 56 14.229 55.989 14.315 55.966L28.044 52.287C28.389 52.195 28.658 51.925 28.751 51.58L32.279 38.41L44.892 35.03L49.943 40.081L51.357 38.667L46.306 33.617L49.835 20.445ZM40.601 2C41.443 2 42.127 2.685 42.127 3.527C42.127 4.369 41.442 5.054 40.601 5.054C39.76 5.054 39.074 4.369 39.074 3.527C39.074 2.685 39.759 2 40.601 2ZM3.87803 29.41C3.03603 29.41 2.35103 28.725 2.35103 27.883C2.35103 27.041 3.03703 26.356 3.87803 26.356C4.71903 26.356 5.40503 27.041 5.40503 27.883C5.40503 28.725 4.72003 29.41 3.87803 29.41ZM26.968 50.505L14.355 53.885L5.12203 44.652L8.50203 32.039L21.114 28.66L30.347 37.893L26.968 50.505ZM31.761 36.478L22.528 27.245L25.908 14.632L38.521 11.252L47.754 20.485L44.374 33.098L31.761 36.478Z" fill="white"/>
<path d="M45.114 20.674L42.603 18.163L41.189 19.577L43.292 21.68L41.669 27.741L43.601 28.259L45.373 21.64C45.466 21.295 45.367 20.927 45.114 20.674Z" fill="white"/>
</svg>
