<svg width="64" height="80" viewBox="0 0 64 80" fill="none" xmlns="http://www.w3.org/2000/svg">
<path d="M27.9882 36.3624L26.574 37.7766L32.2937 43.4963L33.7079 42.0821L27.9882 36.3624Z" fill="white"/>
<path d="M55.835 24.445C55.928 24.1 55.829 23.732 55.576 23.479L45.945 13.848L46.693 11.045C48.594 10.995 50.127 9.44 50.127 7.527C50.127 5.583 48.545 4 46.601 4C44.656 4 43.074 5.583 43.074 7.527C43.074 8.797 43.754 9.902 44.764 10.524L44.019 13.316L30.833 16.849C30.488 16.941 30.219 17.211 30.126 17.556L26.597 30.727L13.628 34.202L12.971 33.545C13.24 33.047 13.407 32.487 13.407 31.883C13.407 29.938 11.825 28.356 9.88003 28.356C7.93503 28.356 6.35303 29.939 6.35303 31.883C6.35303 33.827 7.93503 35.41 9.88003 35.41C10.492 35.41 11.06 35.239 11.562 34.964L12.476 35.878L9.04003 48.691C8.94703 49.036 9.04603 49.404 9.29903 49.657L19.349 59.707C19.538 59.897 19.794 60 20.056 60C20.142 60 20.229 59.989 20.315 59.966L34.044 56.287C34.389 56.195 34.658 55.925 34.751 55.58L38.279 42.41L50.892 39.03L55.943 44.081L57.357 42.667L52.306 37.617L55.835 24.445ZM46.601 6C47.443 6 48.127 6.685 48.127 7.527C48.127 8.369 47.442 9.054 46.601 9.054C45.76 9.054 45.074 8.369 45.074 7.527C45.074 6.685 45.759 6 46.601 6ZM9.87803 33.41C9.03603 33.41 8.35103 32.725 8.35103 31.883C8.35103 31.041 9.03703 30.356 9.87803 30.356C10.719 30.356 11.405 31.041 11.405 31.883C11.405 32.725 10.72 33.41 9.87803 33.41ZM32.968 54.505L20.355 57.885L11.122 48.652L14.502 36.039L27.114 32.66L36.347 41.893L32.968 54.505ZM37.761 40.478L28.528 31.245L31.908 18.632L44.521 15.252L53.754 24.485L50.374 37.098L37.761 40.478Z" fill="white"/>
<path d="M51.114 24.674L48.603 22.163L47.189 23.577L49.292 25.68L47.669 31.741L49.601 32.259L51.373 25.64C51.466 25.295 51.367 24.927 51.114 24.674Z" fill="white"/>
</svg>
