<svg xmlns="http://www.w3.org/2000/svg" xmlns:xlink="http://www.w3.org/1999/xlink" version="1.1" x="0px" y="0px" viewBox="0 0 64 80" style="enable-background:new 0 0 64 64;" xml:space="preserve"><rect x="29.141" y="35.885" transform="matrix(0.7071 -0.7071 0.7071 0.7071 -19.4059 33.0079)" width="2" height="8.089"/><path d="M55.835,24.445c0.093-0.345-0.006-0.713-0.259-0.966l-9.631-9.631l0.748-2.803c1.901-0.05,3.434-1.605,3.434-3.518  C50.127,5.583,48.545,4,46.601,4c-1.945,0-3.527,1.583-3.527,3.527c0,1.27,0.68,2.375,1.69,2.997l-0.745,2.792l-13.186,3.533  c-0.345,0.092-0.614,0.362-0.707,0.707l-3.529,13.171l-12.969,3.475l-0.657-0.657c0.269-0.498,0.436-1.058,0.436-1.662  c0-1.945-1.582-3.527-3.527-3.527s-3.527,1.583-3.527,3.527s1.582,3.527,3.527,3.527c0.612,0,1.18-0.171,1.682-0.446l0.914,0.914  L9.04,48.691c-0.093,0.345,0.006,0.713,0.259,0.966l10.05,10.05C19.538,59.897,19.794,60,20.056,60c0.086,0,0.173-0.011,0.259-0.034  l13.729-3.679c0.345-0.092,0.614-0.362,0.707-0.707l3.528-13.17l12.613-3.38l5.051,5.051l1.414-1.414l-5.051-5.05L55.835,24.445z   M46.601,6c0.842,0,1.526,0.685,1.526,1.527s-0.685,1.527-1.526,1.527s-1.527-0.685-1.527-1.527S45.759,6,46.601,6z M9.878,33.41  c-0.842,0-1.527-0.685-1.527-1.527s0.686-1.527,1.527-1.527s1.527,0.685,1.527,1.527S10.72,33.41,9.878,33.41z M32.968,54.505  l-12.613,3.38l-9.233-9.233l3.38-12.613l12.612-3.379l9.233,9.233L32.968,54.505z M37.761,40.478l-9.233-9.233l3.38-12.613  l12.613-3.38l9.233,9.233l-3.38,12.613L37.761,40.478z"/><path d="M51.114,24.674l-2.511-2.511l-1.414,1.414l2.103,2.103l-1.623,6.061l1.932,0.518l1.772-6.619  C51.466,25.295,51.367,24.927,51.114,24.674z"/><text x="0" y="79" fill="#000000" font-size="5px" font-weight="bold" font-family="'Helvetica Neue', Helvetica, Arial-Unicode, Arial, Sans-serif">Created by Igé Maulana</text><text x="0" y="84" fill="#000000" font-size="5px" font-weight="bold" font-family="'Helvetica Neue', Helvetica, Arial-Unicode, Arial, Sans-serif">from the Noun Project</text></svg>