<svg xmlns="http://www.w3.org/2000/svg" viewBox="0 0 64 80" x="0px" y="0px"><title>29 magnify zoom search analys laboratory</title><path d="M6.28,26.08A17.21,17.21,0,0,1,6,23.59a1,1,0,0,0-1-1,1,1,0,0,0-1,1,19,19,0,0,0,.3,2.78,1,1,0,0,0,1,.82l.18,0A1,1,0,0,0,6.28,26.08Z"/><path d="M12,14.39A13.86,13.86,0,0,0,9,23,14,14,0,1,0,23.81,9a1,1,0,0,0-.11,2A12,12,0,1,1,11,23a11.88,11.88,0,0,1,2.53-7.38A1,1,0,0,0,12,14.39Z"/><path d="M15.6,28.73a1,1,0,0,0,1.58-1.23,7.36,7.36,0,0,1,0-9,1,1,0,1,0-1.58-1.23,9.35,9.35,0,0,0,0,11.48Z"/><path d="M15.75,13.21A1,1,0,0,0,16.3,13a11.88,11.88,0,0,1,4.14-1.77,1,1,0,0,0-.42-2,13.9,13.9,0,0,0-4.84,2.06,1,1,0,0,0,.56,1.83Z"/><path d="M48.76,42.34a1,1,0,0,0-1.41,1.41l10,10a2.54,2.54,0,1,1-3.59,3.59L34.5,38.09a19.13,19.13,0,0,0,3.59-3.59l3.34,3.34a1,1,0,0,0,1.41-1.41l-3.61-3.61A19,19,0,1,0,4.29,19.69a1,1,0,0,0,2,.35,17,17,0,1,1,1,9.31,1,1,0,0,0-1.86.75,19,19,0,0,0,27.45,9.13L52.3,58.71a4.59,4.59,0,0,0,3.25,1.35,4.5,4.5,0,0,0,3.19-1.32,4.56,4.56,0,0,0,0-6.45Z"/><path d="M43.75,38.75a1,1,0,0,0,0,1.41l1.45,1.45a1,1,0,0,0,1.41-1.41l-1.45-1.45A1,1,0,0,0,43.75,38.75Z"/><text x="0" y="79" fill="#000000" font-size="5px" font-weight="bold" font-family="'Helvetica Neue', Helvetica, Arial-Unicode, Arial, Sans-serif">Created by Andi Nur Abdillah</text><text x="0" y="84" fill="#000000" font-size="5px" font-weight="bold" font-family="'Helvetica Neue', Helvetica, Arial-Unicode, Arial, Sans-serif">from the Noun Project</text></svg>