<svg width="333" height="417" viewBox="0 0 333 417" fill="none" xmlns="http://www.w3.org/2000/svg">
<path fill-rule="evenodd" clip-rule="evenodd" d="M167 66L191 80L216 94V123V151L191 165L167 179L142 165L118 151V123V94L142 80L167 66ZM167 78L147 89L128 100V145L147 156L167 168L186 156L206 145V100L186 89L167 78Z" fill="white"/>
<path fill-rule="evenodd" clip-rule="evenodd" d="M217 154L242 168L266 182V211V239L242 253L217 267L193 253L168 239V211V182L193 168L217 154ZM217 166L178 188V233L217 256L256 233V188L217 166Z" fill="white"/>
<path fill-rule="evenodd" clip-rule="evenodd" d="M116 154L141 168L165 182V210V239L141 253L116 267L92 253L67 239V210V182L92 168L116 154ZM116 165L77 188V233L116 255L155 233V188L116 165Z" fill="white"/>
</svg>
