<svg xmlns="http://www.w3.org/2000/svg" xmlns:xlink="http://www.w3.org/1999/xlink" version="1.1" x="0px" y="0px" viewBox="0 0 100 125" style="enable-background:new 0 0 100 100;" xml:space="preserve"><path d="M46,36.1H35.5c-0.6-2.9-3.2-5.1-6.3-5.1c-3.5,0-6.4,2.9-6.4,6.4s2.9,6.4,6.4,6.4c3,0,5.5-2.1,6.2-4.9h8.7  c0.3,0,0.5,0.2,0.5,0.5v38.9c0,0.7,0.5,1.4,1.3,1.4c0.8,0.1,1.5-0.6,1.5-1.4l0,0V37.5C47.4,36.8,46.8,36.1,46,36.1z M29.2,41  c-2,0-3.6-1.6-3.6-3.6s1.6-3.6,3.6-3.6s3.6,1.6,3.6,3.6S31.2,41,29.2,41z"/><path d="M60.4,20.6c0-3.5-2.9-6.4-6.4-6.4c-3.5,0-6.4,2.9-6.4,6.4c0,3,2.1,5.6,5,6.2v54.5v0c0,0.8,0.7,1.5,1.5,1.4  c0.7-0.1,1.3-0.7,1.3-1.4V26.8C58.3,26.2,60.4,23.6,60.4,20.6z M54,24.2c-2,0-3.6-1.6-3.6-3.6S52,17,54,17s3.6,1.6,3.6,3.6  S56,24.2,54,24.2z"/><path d="M60.6,43.5v40.8l0,0c0,0.8,0.7,1.5,1.5,1.4c0.7-0.1,1.3-0.7,1.3-1.4V45.5c0-0.3,0.2-0.5,0.5-0.5h8.7  c0.7,2.8,3.2,4.9,6.2,4.9c3.5,0,6.4-2.9,6.4-6.4S82.3,37,78.8,37c-3.1,0-5.7,2.2-6.3,5.1H62C61.3,42.1,60.6,42.8,60.6,43.5z   M75.2,43.4c0-2,1.6-3.6,3.6-3.6s3.6,1.6,3.6,3.6S80.8,47,78.8,47S75.2,45.4,75.2,43.4z"/><path d="M38,51.1H27.5c-0.6-2.9-3.2-5.1-6.3-5.1c-3.5,0-6.4,2.9-6.4,6.4s2.9,6.4,6.4,6.4c3,0,5.5-2.1,6.2-4.9h8.7  c0.3,0,0.5,0.2,0.5,0.5v29.9c0,0.7,0.5,1.4,1.3,1.4c0.8,0.1,1.5-0.6,1.5-1.4l0,0V52.5C39.4,51.7,38.7,51.1,38,51.1z M21.2,56  c-2,0-3.6-1.6-3.6-3.6s1.6-3.6,3.6-3.6s3.6,1.6,3.6,3.6S23.2,56,21.2,56z"/><text x="0" y="115" fill="#000000" font-size="5px" font-weight="bold" font-family="'Helvetica Neue', Helvetica, Arial-Unicode, Arial, Sans-serif">Created by Wenjie</text><text x="0" y="120" fill="#000000" font-size="5px" font-weight="bold" font-family="'Helvetica Neue', Helvetica, Arial-Unicode, Arial, Sans-serif">from the Noun Project</text></svg>