<svg width="100" height="125" viewBox="0 0 100 125" fill="none" xmlns="http://www.w3.org/2000/svg">
<path d="M46 36.1H35.5C34.9 33.2 32.3001 31 29.2001 31C25.7001 31 22.8 33.9 22.8 37.4C22.8 40.9 25.7001 43.8 29.2001 43.8C32.2001 43.8 34.7001 41.7 35.4001 38.9H44.1C44.4 38.9 44.6 39.1 44.6 39.4V78.3C44.6 79 45.1001 79.7 45.9001 79.7C46.7001 79.8 47.4001 79.1 47.4001 78.3V37.5C47.4001 36.8 46.8 36.1 46 36.1ZM29.2001 41C27.2001 41 25.6 39.4 25.6 37.4C25.6 35.4 27.2001 33.8 29.2001 33.8C31.2001 33.8 32.8 35.4 32.8 37.4C32.8 39.4 31.2001 41 29.2001 41Z" fill="white"/>
<path d="M60.4 20.6C60.4 17.1 57.5 14.2 54 14.2C50.5 14.2 47.6 17.1 47.6 20.6C47.6 23.6 49.7 26.2 52.6 26.8V81.3C52.6 82.1 53.3 82.8 54.1 82.7C54.8 82.6 55.4 82 55.4 81.3V26.8C58.3 26.2 60.4 23.6 60.4 20.6ZM54 24.2C52 24.2 50.4 22.6 50.4 20.6C50.4 18.6 52 17 54 17C56 17 57.6 18.6 57.6 20.6C57.6 22.6 56 24.2 54 24.2Z" fill="white"/>
<path d="M60.6 43.5V84.3C60.6 85.1 61.3 85.8 62.1 85.7C62.8 85.6 63.4 85 63.4 84.3V45.5C63.4 45.2 63.6 45 63.9 45H72.6C73.3 47.8 75.8 49.9 78.8 49.9C82.3 49.9 85.2 47 85.2 43.5C85.2 40 82.3 37 78.8 37C75.7 37 73.1 39.2 72.5 42.1H62C61.3 42.1 60.6 42.8 60.6 43.5ZM75.2 43.4C75.2 41.4 76.8 39.8 78.8 39.8C80.8 39.8 82.4 41.4 82.4 43.4C82.4 45.4 80.8 47 78.8 47C76.8 47 75.2 45.4 75.2 43.4Z" fill="white"/>
<path d="M38 51.1H27.5C26.9 48.2 24.3 46 21.2 46C17.7 46 14.8 48.9 14.8 52.4C14.8 55.9 17.7 58.8 21.2 58.8C24.2 58.8 26.7 56.7 27.4 53.9H36.1C36.4 53.9 36.6 54.1 36.6 54.4V84.3C36.6 85 37.1001 85.7 37.9001 85.7C38.7001 85.8 39.4001 85.1 39.4001 84.3V52.5C39.4001 51.7 38.7 51.1 38 51.1ZM21.2 56C19.2 56 17.6 54.4 17.6 52.4C17.6 50.4 19.2 48.8 21.2 48.8C23.2 48.8 24.8 50.4 24.8 52.4C24.8 54.4 23.2 56 21.2 56Z" fill="white"/>
</svg>
